<?xml version="1.0" encoding="UTF-8" ?>
<!DOCTYPE svg PUBLIC "-//W3C//DTD SVG 1.1//EN" "http://www.w3.org/Graphics/SVG/1.1/DTD/svg11.dtd">
<svg width="192pt" height="192pt" viewBox="0 0 192 192" version="1.1" xmlns="http://www.w3.org/2000/svg">
<g id="#f05f40ff">
<path fill="#f05f40" opacity="1.00" d=" M 42.54 8.40 C 57.67 1.85 74.69 0.52 90.87 3.05 C 120.71 7.80 147.83 24.97 166.67 48.35 C 181.27 66.45 190.90 88.94 192.00 112.30 L 192.00 119.64 C 191.15 136.40 185.12 153.17 173.68 165.64 C 162.77 177.95 147.28 185.71 131.13 188.33 C 112.27 191.51 92.71 188.26 75.19 180.89 C 48.83 169.71 26.40 149.42 12.83 124.20 C 5.44 110.48 0.90 95.20 0.00 79.63 L 0.00 71.51 C 0.71 60.66 3.26 49.81 8.34 40.14 C 15.56 25.98 27.95 14.63 42.54 8.40 M 35.24 88.99 C 35.61 96.81 34.18 104.92 36.76 112.49 C 40.81 124.14 52.50 133.05 65.02 132.59 C 94.39 132.59 123.76 132.63 153.13 132.57 C 157.47 132.79 158.18 125.64 153.96 124.75 C 149.64 124.52 145.30 124.76 140.96 124.64 C 142.06 122.60 143.98 121.16 145.13 119.14 C 149.06 113.59 150.33 106.64 150.21 99.96 C 150.11 93.34 150.71 86.57 148.77 80.13 C 145.03 67.82 132.83 58.71 119.94 58.73 C 101.31 58.74 82.67 58.69 64.04 58.75 C 48.55 59.31 34.66 73.30 35.24 88.99 Z" />
<path fill="#f05f40" opacity="1.00" d=" M 62.16 67.23 C 63.75 67.00 65.34 66.79 66.95 66.83 C 84.66 66.87 102.37 66.82 120.08 66.86 C 129.00 66.97 137.57 72.84 140.56 81.31 C 143.34 87.88 141.95 95.10 142.29 102.01 C 142.63 113.87 132.04 125.19 120.02 124.67 C 101.69 124.65 83.37 124.68 65.04 124.65 C 53.26 124.71 42.60 113.82 43.34 101.94 C 43.75 94.93 42.21 87.57 44.86 80.86 C 47.75 73.76 54.43 68.04 62.16 67.23 Z" />
</g>
<g id="#fefefeff">
<path fill="#fefefe" opacity="1.00" d=" M 35.24 88.99 C 34.66 73.30 48.55 59.31 64.04 58.75 C 82.67 58.69 101.31 58.74 119.94 58.73 C 132.83 58.71 145.03 67.82 148.77 80.13 C 150.71 86.57 150.11 93.34 150.21 99.96 C 150.33 106.64 149.06 113.59 145.13 119.14 C 143.98 121.16 142.06 122.60 140.96 124.64 C 145.30 124.76 149.64 124.52 153.96 124.75 C 158.18 125.64 157.47 132.79 153.13 132.57 C 123.76 132.63 94.39 132.59 65.02 132.59 C 52.50 133.05 40.81 124.14 36.76 112.49 C 34.18 104.92 35.61 96.81 35.24 88.99 M 62.16 67.23 C 54.43 68.04 47.75 73.76 44.86 80.86 C 42.21 87.57 43.75 94.93 43.34 101.94 C 42.60 113.82 53.26 124.71 65.04 124.65 C 83.37 124.68 101.69 124.65 120.02 124.67 C 132.04 125.19 142.63 113.87 142.29 102.01 C 141.95 95.10 143.34 87.88 140.56 81.31 C 137.57 72.84 129.00 66.97 120.08 66.86 C 102.37 66.82 84.66 66.87 66.95 66.83 C 65.34 66.79 63.75 67.00 62.16 67.23 Z" />
</g>
</svg>
