<?xml version="1.0" encoding="UTF-8"?><svg id="b" xmlns="http://www.w3.org/2000/svg" viewBox="0 0 141.51 41.14"><defs><style>.g{fill:#ed6047;}.h{fill:#231f20;}</style></defs><g id="c"><g><ellipse id="d" class="g" cx="19.93" cy="20.57" rx="18.07" ry="22.22" transform="translate(-8.59 17.89) rotate(-40.54)"/><g id="e"><path id="f" class="h" d="M30.52,25.34h-2c.49-.46,.89-1.01,1.17-1.62,.28-.63,.43-1.31,.43-2v-2.27c0-.66-.14-1.32-.4-1.93-.52-1.21-1.5-2.17-2.72-2.66-.63-.28-1.31-.42-2-.4h-9c-.67,0-1.33,.13-1.94,.4-1.2,.51-2.15,1.46-2.66,2.66-.27,.61-.4,1.27-.4,1.93v2.24c0,.67,.13,1.33,.4,1.94,.51,1.2,1.46,2.15,2.66,2.65,.61,.27,1.27,.41,1.94,.4h14.51c.37-.05,.63-.38,.58-.75-.04-.31-.28-.55-.58-.58h.01Zm-2.82-1.11c-.31,.34-.69,.61-1.11,.8-.43,.2-.9,.3-1.38,.3h-9.21c-.49,0-.97-.09-1.42-.29-.87-.38-1.57-1.08-1.95-1.95-.19-.45-.29-.93-.29-1.41v-2.24c0-.5,.11-.99,.32-1.45,.38-.87,1.08-1.57,1.95-1.95,.44-.18,.91-.27,1.39-.25h9c.49,0,.97,.09,1.42,.29,.9,.36,1.61,1.06,2,1.95,.19,.45,.29,.93,.29,1.41v2.24c0,.48-.09,.96-.28,1.4-.18,.43-.44,.82-.76,1.15h.03Zm21-9.55c.13,.12,.2,.29,.2,.47v6.53c0,.67-.14,1.33-.4,1.94-.26,.59-.63,1.13-1.09,1.59-.45,.45-.98,.81-1.57,1.06-.61,.27-1.27,.41-1.94,.4h-5.9c-.69,.01-1.37-.12-2-.4-1.19-.51-2.14-1.46-2.65-2.65-.27-.61-.41-1.27-.4-1.94v-6.53c-.05-.37,.22-.7,.58-.75,.37-.05,.7,.22,.75,.58,0,.05,0,.11,0,.16h0v6.53c0,.48,.1,.96,.29,1.4,.19,.43,.46,.83,.79,1.17,.33,.34,.72,.6,1.15,.79,.44,.2,.92,.3,1.41,.29h5.94c.49,0,.97-.09,1.41-.29,.44-.18,.83-.45,1.17-.78,.34-.33,.6-.72,.79-1.15,.2-.44,.29-.92,.29-1.4v-6.56c0-.37,.31-.67,.68-.67,.17,0,.34,.07,.46,.2h.04Zm53.15,0c.26,.26,.26,.67,0,.93,0,0,0,0,0,0-.12,.13-.29,.2-.47,.2h-7.08v10.17c-.09,.36-.45,.58-.81,.49-.24-.06-.43-.25-.49-.49h0V15.83h-13.78v10.17c0,.37-.3,.67-.67,.67-.37,0-.67-.3-.67-.67h0V15.83h-6.8c-.37,.05-.7-.22-.75-.58-.05-.37,.22-.7,.58-.75,.05,0,.11,0,.16,0h30.29c.18-.01,.35,.06,.47,.19h.01Zm16.68,.42c-.31-.2-.65-.36-1-.46-.37-.11-.76-.16-1.15-.15h-12c-.36-.01-.66,.27-.67,.63,0,0,0,.01,0,.02h0v10.85c-.02,.36,.26,.67,.63,.69,0,0,0,0,.01,0,.37,.02,.68-.27,.7-.64,0,0,0,0,0,0v-4.05h10.32l3.28,4.41c.2,.32,.62,.42,.94,.22,.12-.07,.21-.18,.26-.3,.03-.12,.03-.25,0-.37-.02-.13-.07-.25-.16-.35l-2.69-3.71c.8-.1,1.56-.45,2.15-1,.36-.33,.66-.73,.87-1.18,.46-1.05,.4-2.25-.18-3.24-.32-.54-.76-.99-1.28-1.33l-.03-.04Zm.21,4.05c-.13,.29-.32,.54-.55,.76-.48,.44-1.1,.69-1.75,.69h-11.44v-4.78h11.35c.34,0,.68,.06,1,.19,.31,.11,.59,.28,.83,.5,.24,.21,.43,.46,.57,.75,.14,.3,.21,.62,.21,.95,0,.33-.07,.65-.21,.94h0Zm22.37-1.61c-.51-1.2-1.46-2.15-2.66-2.66-.62-.27-1.28-.4-1.95-.4h-8.68c-.69,0-1.37,.13-2,.4-1.19,.51-2.14,1.47-2.65,2.66-.27,.61-.4,1.27-.4,1.94v2.2c0,.67,.13,1.33,.4,1.94,.51,1.19,1.46,2.14,2.65,2.65,.63,.28,1.31,.41,2,.4h8.68c.67,0,1.34-.13,1.95-.4,1.2-.5,2.15-1.45,2.66-2.65,.27-.61,.41-1.27,.4-1.94v-2.2c0-.66-.13-1.32-.4-1.93h0Zm-.94,4.12c0,.49-.09,.97-.29,1.42-.39,.88-1.11,1.58-2,1.95-.45,.2-.93,.29-1.42,.29h-8.66c-.49,0-.97-.09-1.41-.29-.89-.37-1.61-1.06-2-1.94-.2-.45-.29-.93-.29-1.42v-2.2c0-.49,.09-.97,.29-1.42,.39-.88,1.11-1.58,2-1.95,.45-.19,.93-.29,1.42-.29h8.68c.49,0,.97,.1,1.42,.29,.89,.37,1.61,1.07,2,1.95,.2,.45,.3,.93,.29,1.42l-.03,2.19Zm-67.33,3.89l-10.84-10.88c-.25-.25-.65-.26-.9-.02,0,0-.01,0-.02,.02l-10.92,10.88c-.25,.25-.25,.67,0,.92,.12,.12,.29,.19,.46,.19h21.76c.36-.02,.63-.32,.62-.68,0-.17-.07-.33-.19-.45l.03,.02Zm-20.64-.19l9.3-9.3,9.3,9.3h-18.6Z"/></g></g></g></svg>